<?xml version="1.0" encoding="UTF-8" standalone="no"?>
<!-- Created with Inkscape (http://www.inkscape.org/) -->

<svg
   width="210mm"
   height="297mm"
   viewBox="0 0 210 297"
   version="1.1"
   id="svg1"
   xml:space="preserve"
   inkscape:version="1.3.2 (091e20e, 2023-11-25, custom)"
   sodipodi:docname="me-icon.svg"
   xmlns:inkscape="http://www.inkscape.org/namespaces/inkscape"
   xmlns:sodipodi="http://sodipodi.sourceforge.net/DTD/sodipodi-0.dtd"
   xmlns="http://www.w3.org/2000/svg"
   xmlns:svg="http://www.w3.org/2000/svg"><sodipodi:namedview
     id="namedview1"
     pagecolor="#505050"
     bordercolor="#eeeeee"
     borderopacity="1"
     inkscape:showpageshadow="0"
     inkscape:pageopacity="0"
     inkscape:pagecheckerboard="0"
     inkscape:deskcolor="#d1d1d1"
     inkscape:document-units="mm"
     inkscape:zoom="1.3736953"
     inkscape:cx="255.87916"
     inkscape:cy="399.28797"
     inkscape:window-width="1920"
     inkscape:window-height="1009"
     inkscape:window-x="-8"
     inkscape:window-y="-8"
     inkscape:window-maximized="1"
     inkscape:current-layer="layer1" /><defs
     id="defs1" /><g
     inkscape:label="Calque 1"
     inkscape:groupmode="layer"
     id="layer1"><g
       id="g4"><path
         id="path1"
         style="fill:#0b203c;stroke:none;stroke-width:2.1;stroke-linecap:round;stroke-linejoin:round;paint-order:stroke fill markers;fill-opacity:1"
         d="M 48.4203 125.73599 A 37.365757 37.365757 0 0 0 51.618555 125.96492 A 37.365757 37.365757 0 0 0 88.984233 88.599243 A 37.365757 37.365757 0 0 0 82.225472 67.184013 L 48.4203 125.73599 z " /><path
         id="path4"
         style="fill:#0b203c;stroke:none;stroke-width:2.1;stroke-linecap:round;stroke-linejoin:round;paint-order:stroke fill markers;fill-opacity:1"
         d="M 54.863318 51.382393 A 37.365757 37.365757 0 0 0 51.618555 51.233565 A 37.365757 37.365757 0 0 0 14.252877 88.599243 A 37.365757 37.365757 0 0 0 21.047811 109.9535 L 54.863318 51.382393 z " /><path
         id="path3"
         style="fill:#0d6986;stroke:none;stroke-width:2.1;stroke-linecap:round;stroke-linejoin:round;paint-order:stroke fill markers;fill-opacity:1"
         d="M 54.863318 51.382393 L 21.047811 109.9535 A 37.365757 37.365757 0 0 0 48.4203 125.73599 L 82.225472 67.184013 A 37.365757 37.365757 0 0 0 54.863318 51.382393 z " /></g><text
       xml:space="preserve"
       style="font-size:65.7572px;font-family:'Fredoka One';-inkscape-font-specification:'Fredoka One, Normal';fill:#ffffff;fill-opacity:1;stroke:none;stroke-width:7.52765;stroke-linecap:round;stroke-linejoin:round;paint-order:stroke fill markers"
       x="23.014172"
       y="112.69926"
       id="text1"><tspan
         sodipodi:role="line"
         id="tspan1"
         style="fill:#ffffff;fill-opacity:1;stroke-width:7.52765"
         x="23.014172"
         y="112.69926">M</tspan></text></g></svg>
